<svg width="173" height="24" viewBox="0 0 173 24" fill="none" xmlns="http://www.w3.org/2000/svg">
<path id="Union" fill-rule="evenodd" clip-rule="evenodd" d="M39.2011 0.670898H35.8381C35.3648 0.670898 34.7662 1.13508 34.4948 1.71961L24.5835 22.9259C24.3121 23.5018 24.4722 23.9746 24.9455 23.9746H35.852C36.3253 23.9746 36.9239 23.5104 37.1953 22.9259L47.1066 1.71961C47.378 1.14368 47.2179 0.670898 46.7446 0.670898H42.6522C42.5109 0.286108 42.2004 0 41.8099 0H40.042C39.6527 0 39.3429 0.286958 39.2011 0.670898ZM32.3166 1.7192L22.4054 22.9255C22.1339 23.51 21.5284 24 21.0621 24H0.647988C0.105097 24 -0.145468 23.596 0.0911766 23.0888L5.54097 11.4155C5.77761 10.9169 6.40402 10.5043 6.94692 10.5043H15.4661C15.5496 10.5043 15.6262 10.4441 15.668 10.3496L19.7049 1.7106C19.9763 1.13467 20.5818 0.661891 21.0482 0.661891H31.9547C32.428 0.661891 32.5881 1.13467 32.3166 1.7106V1.7192ZM162.756 21.0968C163.8 21.6539 165.04 21.9325 166.478 21.9325C167.677 21.9325 168.732 21.7537 169.645 21.3959C170.558 21.0322 171.294 20.5249 171.855 19.8739C172.422 19.217 172.788 18.4457 172.955 17.5601L168.938 17.4457C168.825 17.7449 168.655 17.9971 168.428 18.2023C168.202 18.4076 167.93 18.563 167.614 18.6686C167.298 18.7742 166.946 18.827 166.558 18.827C165.998 18.827 165.515 18.7126 165.109 18.4839C164.704 18.2551 164.39 17.9355 164.17 17.5249C163.949 17.1085 163.839 16.6246 163.839 16.0733V15.9589H173V14.8856C173 13.7771 172.836 12.7947 172.508 11.9384C172.18 11.0762 171.721 10.3519 171.13 9.76538C170.54 9.17887 169.839 8.73606 169.028 8.43694C168.217 8.13782 167.322 7.98826 166.344 7.98826C164.96 7.98826 163.758 8.28151 162.738 8.86802C161.718 9.44867 160.928 10.2639 160.367 11.3138C159.807 12.3578 159.526 13.5777 159.526 14.9736C159.526 16.4105 159.804 17.651 160.358 18.695C160.919 19.7331 161.718 20.5337 162.756 21.0968ZM163.841 13.4604C163.863 13.0255 163.981 12.6354 164.197 12.2903C164.423 11.9208 164.73 11.6305 165.118 11.4193C165.506 11.2023 165.944 11.0938 166.433 11.0938C166.916 11.0938 167.343 11.1965 167.713 11.4017C168.088 11.6012 168.384 11.8798 168.598 12.2375C168.813 12.5953 168.923 13.0029 168.929 13.4604H163.841ZM158.757 8.16427V11.3314H156.279V17.4282C156.279 17.6921 156.32 17.9062 156.404 18.0704C156.493 18.2288 156.621 18.3432 156.788 18.4135C156.955 18.4781 157.155 18.5103 157.388 18.5103C157.555 18.5103 157.731 18.4956 157.916 18.4663C158.107 18.4311 158.25 18.4018 158.345 18.3783L159.007 21.4839C158.798 21.5426 158.503 21.6159 158.122 21.7039C157.746 21.7918 157.295 21.8476 156.771 21.871C155.745 21.9179 154.865 21.8006 154.131 21.5191C153.404 21.2317 152.846 20.786 152.458 20.1819C152.077 19.5778 151.892 18.8182 151.904 17.9033V11.3314H150.087V8.16427H151.904V4.92673H156.279V8.16427H158.757ZM144.628 8.16388V21.6771H149.003V8.16388H144.628ZM145.236 5.99086C145.678 6.38969 146.205 6.5891 146.82 6.5891C147.44 6.5891 147.968 6.38969 148.403 5.99086C148.845 5.58617 149.065 5.09937 149.065 4.53045C149.065 3.9674 148.845 3.48646 148.403 3.08764C147.968 2.68294 147.44 2.4806 146.82 2.4806C146.205 2.4806 145.678 2.68294 145.236 3.08764C144.795 3.48646 144.574 3.9674 144.574 4.53045C144.574 5.09937 144.795 5.58617 145.236 5.99086ZM122.091 21.6774V8.16421H126.252V10.6451H126.404C126.69 9.82403 127.173 9.17594 127.853 8.70087C128.533 8.22579 129.344 7.98826 130.286 7.98826C131.241 7.98826 132.058 8.22872 132.738 8.70966C133.418 9.1906 133.85 9.83576 134.035 10.6451H134.178C134.435 9.84163 134.936 9.1994 135.681 8.71846C136.427 8.23166 137.307 7.98826 138.321 7.98826C139.621 7.98826 140.677 8.39881 141.488 9.21993C142.299 10.0352 142.704 11.1554 142.704 12.5806V21.6774H138.33V13.566C138.33 12.8915 138.154 12.3783 137.802 12.0264C137.45 11.6686 136.993 11.4897 136.433 11.4897C135.83 11.4897 135.356 11.6833 135.01 12.0704C134.67 12.4516 134.5 12.9648 134.5 13.61V21.6774H130.295V13.522C130.295 12.8944 130.122 12.3988 129.777 12.0352C129.431 11.6715 128.974 11.4897 128.408 11.4897C128.026 11.4897 127.689 11.5806 127.397 11.7624C127.104 11.9384 126.875 12.1906 126.708 12.519C126.547 12.8475 126.466 13.2346 126.466 13.6803V21.6774H122.091ZM109.655 21.4751C110.335 21.7624 111.113 21.9061 111.99 21.9061C112.628 21.9061 113.201 21.827 113.708 21.6686C114.221 21.5102 114.665 21.2727 115.041 20.956C115.423 20.6393 115.736 20.2522 115.98 19.7947H116.088V21.6774H120.203V12.4927C120.203 11.7771 120.051 11.1407 119.747 10.5836C119.449 10.0264 119.025 9.55717 118.477 9.17594C117.928 8.78884 117.284 8.49559 116.544 8.29617C115.805 8.09089 114.996 7.98826 114.12 7.98826C112.891 7.98826 111.838 8.17594 110.961 8.5513C110.091 8.92081 109.405 9.43107 108.904 10.0821C108.409 10.7273 108.101 11.4604 107.982 12.2815L112.017 12.4223C112.113 11.9883 112.336 11.6481 112.688 11.4017C113.04 11.1554 113.505 11.0322 114.084 11.0322C114.621 11.0322 115.047 11.1554 115.363 11.4017C115.679 11.6481 115.837 11.9971 115.837 12.4487V12.4927C115.837 12.7683 115.727 12.9824 115.506 13.1349C115.292 13.2815 114.946 13.3959 114.468 13.478C113.991 13.5542 113.362 13.6276 112.581 13.6979C111.883 13.7566 111.227 13.871 110.612 14.041C109.998 14.2053 109.455 14.4487 108.984 14.7712C108.513 15.0938 108.143 15.5132 107.875 16.0293C107.606 16.5454 107.472 17.1789 107.472 17.9296C107.472 18.8211 107.666 19.563 108.054 20.1554C108.447 20.7419 108.981 21.1818 109.655 21.4751ZM114.612 18.8094C114.236 18.9971 113.812 19.0909 113.341 19.0909C112.84 19.0909 112.426 18.9736 112.098 18.739C111.776 18.5044 111.614 18.1642 111.614 17.7185C111.614 17.4252 111.689 17.173 111.838 16.9619C111.993 16.7449 112.214 16.5689 112.5 16.434C112.792 16.2991 113.144 16.1994 113.556 16.1349C113.759 16.1056 113.97 16.0733 114.191 16.0381C114.412 16.0029 114.627 15.9619 114.835 15.9149C115.044 15.868 115.235 15.8182 115.408 15.7654C115.587 15.7126 115.739 15.6539 115.864 15.5894V16.8739C115.864 17.3138 115.751 17.7009 115.524 18.0352C115.298 18.3636 114.993 18.6217 114.612 18.8094ZM97.311 13.9707V21.6774H92.936V8.16421H97.0962V10.6451H97.2483C97.5525 9.81817 98.0714 9.17007 98.8051 8.70087C99.5387 8.22579 100.412 7.98826 101.426 7.98826C102.393 7.98826 103.231 8.20233 103.94 8.63048C104.656 9.05277 105.211 9.64515 105.605 10.4076C106.004 11.1642 106.201 12.0498 106.195 13.0645V21.6774H101.82V13.9091C101.826 13.1583 101.632 12.5718 101.239 12.1495C100.851 11.7273 100.311 11.5161 99.6192 11.5161C99.1599 11.5161 98.7544 11.6158 98.4025 11.8152C98.0565 12.0088 97.7881 12.2874 97.5973 12.651C97.4124 13.0146 97.3169 13.4545 97.311 13.9707ZM80.818 21.0616C81.8558 21.6422 83.0964 21.9325 84.5398 21.9325C85.9832 21.9325 87.2208 21.6422 88.2527 21.0616C89.2905 20.4751 90.0867 19.6598 90.6414 18.6158C91.2021 17.566 91.4824 16.349 91.4824 14.9648C91.4824 13.5748 91.2021 12.3578 90.6414 11.3138C90.0867 10.2639 89.2905 9.44867 88.2527 8.86802C87.2208 8.28151 85.9832 7.98826 84.5398 7.98826C83.0964 7.98826 81.8558 8.28151 80.818 8.86802C79.7861 9.44867 78.9899 10.2639 78.4292 11.3138C77.8745 12.3578 77.5972 13.5748 77.5972 14.9648C77.5972 16.349 77.8745 17.566 78.4292 18.6158C78.9899 19.6598 79.7861 20.4751 80.818 21.0616ZM85.8997 18.2111C85.5359 18.5278 85.0915 18.6862 84.5666 18.6862C84.0239 18.6862 83.5646 18.5278 83.1888 18.2111C82.819 17.8944 82.5357 17.4545 82.3389 16.8915C82.148 16.3284 82.0526 15.6774 82.0526 14.9384C82.0526 14.1877 82.148 13.5308 82.3389 12.9677C82.5357 12.4047 82.819 11.9648 83.1888 11.6481C83.5646 11.3314 84.0239 11.173 84.5666 11.173C85.0915 11.173 85.5359 11.3314 85.8997 11.6481C86.2635 11.9648 86.5409 12.4047 86.7317 12.9677C86.9286 13.5308 87.027 14.1877 87.027 14.9384C87.027 15.6774 86.9286 16.3284 86.7317 16.8915C86.5409 17.4545 86.2635 17.8944 85.8997 18.2111ZM71.7526 21.6771V8.16388H76.1275V21.6771H71.7526ZM73.9445 6.5891C73.3302 6.5891 72.8023 6.38969 72.3609 5.99086C71.9196 5.58617 71.6989 5.09937 71.6989 4.53045C71.6989 3.9674 71.9196 3.48646 72.3609 3.08764C72.8023 2.68294 73.3302 2.4806 73.9445 2.4806C74.5648 2.4806 75.0927 2.68294 75.5281 3.08764C75.9694 3.48646 76.1901 3.9674 76.1901 4.53045C76.1901 5.09937 75.9694 5.58617 75.5281 5.99086C75.0927 6.38969 74.5648 6.5891 73.9445 6.5891ZM54.1367 21.6777H60.9094C62.7703 21.6777 64.3777 21.32 65.7316 20.6044C67.0855 19.883 68.1264 18.8478 68.854 17.4988C69.5876 16.1499 69.9545 14.537 69.9545 12.6601C69.9545 10.7892 69.5876 9.18213 68.854 7.83902C68.1204 6.49004 67.0766 5.45778 65.7227 4.74224C64.3747 4.02083 62.7673 3.66013 60.9004 3.66013H54.1367V21.6777ZM60.7394 17.9651H58.5653V7.37274H60.6767C61.7265 7.37274 62.6092 7.54576 63.325 7.8918C64.0467 8.23198 64.5924 8.78916 64.9622 9.56336C65.332 10.3317 65.5169 11.3639 65.5169 12.6601C65.5169 13.9563 65.332 14.9944 64.9622 15.7745C64.5984 16.5487 64.0586 17.1088 63.3429 17.4549C62.6331 17.795 61.7653 17.9651 60.7394 17.9651Z" fill="#232323"/>
</svg>
