<?xml version="1.0" encoding="utf-8"?>
<!-- Generator: Adobe Illustrator 28.0.0, SVG Export Plug-In . SVG Version: 6.00 Build 0)  -->
<svg version="1.1" id="Camada_1" xmlns="http://www.w3.org/2000/svg" xmlns:xlink="http://www.w3.org/1999/xlink" x="0px" y="0px"
	 viewBox="0 0 300 120" style="enable-background:new 0 0 300 120;" xml:space="preserve">
<style type="text/css">
	.st0{fill:currentColor;}
</style>
<g>
	<path class="st0" d="M223.8,120H5.1c-2,0-3.6-0.8-4.5-2.3c-1-1.7-0.8-3.9,0.5-6.1l65-105.3C68.1,2.8,72.6,0,76.2,0h218.7
		c2,0,3.6,0.8,4.5,2.3c1,1.7,0.8,3.9-0.5,6.1l-65,105.3C231.9,117.2,227.4,120,223.8,120z M76.2,4c-2.2,0-5.4,2-6.7,4.4l-65,105.3
		c-0.7,1.1-0.6,1.8-0.5,2.1c0.1,0.2,0.5,0.3,1,0.3h218.7c2.2,0,5.4-2,6.7-4.4l65-105.3c0.7-1.1,0.6-1.8,0.5-2.1
		c-0.1-0.2-0.5-0.3-1-0.3H76.2z"/>
</g>
</svg>
