<?xml version="1.0" encoding="utf-8"?>
<!-- Generator: Adobe Illustrator 28.0.0, SVG Export Plug-In . SVG Version: 6.00 Build 0)  -->
<svg version="1.1" id="Camada_1" xmlns="http://www.w3.org/2000/svg" xmlns:xlink="http://www.w3.org/1999/xlink" x="0px" y="0px"
	 viewBox="0 0 140 120" style="enable-background:new 0 0 140 120;" xml:space="preserve">
<style type="text/css">
	.st0{fill:currentColor;}
</style>
<g>
	<path class="st0" d="M65.2,120H5c-2,0-3.6-0.8-4.4-2.3c-0.9-1.7-0.8-3.9,0.5-6.1L64.8,6.4c2-3.6,6.4-6.4,10-6.4H135
		c2,0,3.6,0.8,4.4,2.3c0.9,1.7,0.8,3.9-0.5,6.1L75.2,113.6C73.2,117.2,68.8,120,65.2,120z M74.8,4c-2.2,0-5.3,2-6.6,4.4L4.5,113.6
		c-0.6,1.1-0.6,1.8-0.5,2.1c0.1,0.2,0.5,0.3,1,0.3h60.2c2.2,0,5.3-2,6.6-4.4L135.5,6.4c0.6-1.1,0.6-1.8,0.5-2.1
		c-0.1-0.2-0.5-0.3-1-0.3H74.8z"/>
</g>
</svg>
