<?xml version="1.0" encoding="utf-8"?>
<!-- Generator: Adobe Illustrator 28.0.0, SVG Export Plug-In . SVG Version: 6.00 Build 0)  -->
<svg version="1.1" id="Camada_1" xmlns="http://www.w3.org/2000/svg" xmlns:xlink="http://www.w3.org/1999/xlink" x="0px" y="0px"
	 viewBox="0 0 74.5 102.5" style="enable-background:new 0 0 74.5 102.5;" xml:space="preserve">
<style type="text/css">
	.st0{fill:#FF8247;}
</style>
<path class="st0" d="M5.6,60.7l-0.2,1.9c-0.1,0.8,0.5,1.6,1.3,1.7c0,0,0,0,0,0h61.1c0.9,0,1.6-0.7,1.6-1.5c0,0,0,0,0,0
	c0-0.1,0-0.1,0-0.2l-0.2-1.9c-0.1-1.5,0.9-2.8,2.4-2.9c1.4-0.2,2.8,0.9,2.9,2.3c0,0,0,0,0,0l0,0l0.2,1.8c0.5,4.1-1.8,7.7-6,7.7H6
	c-4.1,0-6.4-3.6-5.9-7.7l0.2-1.8c0.1-1.4,1.4-2.5,2.9-2.3c0,0,0,0,0,0l0,0C4.6,57.9,5.7,59.2,5.6,60.7"/>
<path class="st0" d="M61.9,46.5c2.8,0.1,5.1-2,5.3-4.7c0-0.1,0-0.2,0-0.3c-0.1-2.9-2.7-4.8-5.7-4.8h-6c-1.4,0-2.5-1.1-2.5-2.5
	s1.1-2.5,2.5-2.5h4c2.7-0.1,4.8-1.7,4.9-4.3c0.1-2.7-2.2-4.8-5.1-4.8h-9.7v23.8L61.9,46.5 M69.2,27.5c0,2.1-0.8,4.1-2.3,5.6
	l-0.2,0.2l0.2,0.1c3,1.7,4.9,4.7,5,8.1c0.1,5.5-4.3,10-9.8,10.1h-15c-1.4,0-2.6-1.2-2.6-2.7l0,0V20.5c0-1.4,1.1-2.6,2.6-2.7
	c0,0,0,0,0.1,0l0,0h12.2c5.3-0.1,9.7,4,9.9,9.3L69.2,27.5"/>
<path class="st0" d="M21.8,41.9l0.1,0.2l0.1-0.2c0.7-1.9,1.5-4,2.4-6.2s1.8-4.7,2.7-6.9s1.8-4.2,2.6-5.9c0.5-1.3,1.2-2.5,2-3.6
	c0.8-1,2-1.5,3.2-1.5h0.6c0.7,0,1.4,0.2,1.9,0.6c0.4,0.3,0.7,0.8,0.8,1.4l3.8,29.5c0,0.7-0.2,1.3-0.7,1.8c-0.5,0.4-1.2,0.6-1.8,0.6
	c-0.7,0-1.4-0.2-1.9-0.6c-0.5-0.3-0.8-0.9-0.9-1.5c-0.1-1-0.2-2.1-0.4-3.3s-0.8-6.3-0.9-7.6s-1.2-9.7-1.6-12.7v-0.3l-1.2,2.6
	c-0.4,0.9-0.9,1.9-1.3,3.2s-1,2.5-1.5,3.9s-2.9,8.1-2.9,8.1c-0.2,0.6-0.6,1.8-1,3s-0.7,2.2-0.8,2.3c-0.9,1.7-2.9,2.3-4.6,1.5
	c-0.7-0.3-1.2-0.9-1.5-1.5c-0.1-0.2-0.4-1.2-0.8-2.3s-0.8-2.3-1-3c0,0-2.4-6.7-2.9-8.1s-1-2.7-1.5-3.9s-0.9-2.3-1.4-3.2L10,25.8v0.3
	c-0.4,3-1.4,11.4-1.6,12.7s-0.8,6.4-0.9,7.6s-0.2,2.3-0.4,3.3c-0.1,0.6-0.4,1.1-0.9,1.5c-0.6,0.4-1.2,0.6-1.9,0.6
	c-0.7,0-1.3-0.2-1.8-0.6c-0.4-0.5-0.7-1.1-0.7-1.8l3.8-29.5c0.1-0.5,0.4-1,0.8-1.3c0.5-0.5,1.2-0.7,1.9-0.7h0.6
	c1.2,0,2.4,0.5,3.2,1.5c0.8,1.1,1.5,2.3,2,3.6c0.8,1.7,1.7,3.7,2.6,5.9s1.8,4.5,2.7,6.9C20.3,37.9,21.1,40,21.8,41.9"/>
<path class="st0" d="M14.3,0h46.3c4.4,0,6.5,3.3,7,7.6L67.8,9c0.2,1.5-0.9,2.8-2.4,3c-1.5,0.1-2.7-1-2.9-2.4l0,0l-0.2-1.3
	c-0.2-1.6-0.9-2.9-2.5-2.9H15.1c-1.7,0-2.4,1.3-2.6,2.9l-0.2,1.3c-0.1,1.5-1.4,2.5-2.9,2.4l0,0c-1.5-0.2-2.6-1.5-2.4-3c0,0,0,0,0,0
	l0.2-1.4C7.8,3.2,10,0,14.3,0"/>
<g>
	<path class="st0" d="M20.5,87.9c-0.3,1.2-0.7,2.5-1,4c-0.3,1.4-0.7,2.8-1,4s-0.7,2.4-1,3.4c-0.2,0.7-0.4,1.4-0.8,2
		c-0.4,0.6-1.1,1-1.9,0.9c-0.3,0-0.7-0.1-1-0.2c-0.4-0.1-0.8-0.4-1-0.9c-0.3-0.7-0.6-1.4-0.8-2.1c-0.3-1-0.6-2.2-1-3.6
		s-0.7-2.8-1-4.3c-0.3-1.5-0.7-2.9-0.9-4.2s-0.5-2.4-0.7-3.3s-0.3-1.4-0.3-1.6c0-0.1,0-0.2,0-0.2v-0.1c0-0.4,0.2-0.7,0.4-0.9
		c0.3-0.2,0.7-0.4,1.1-0.3c0.4,0,0.7,0.1,1,0.3c0.3,0.2,0.5,0.5,0.5,0.9c0,0,0.1,0.4,0.2,1s0.3,1.4,0.5,2.3s0.4,2,0.6,3.2
		s0.5,2.4,0.8,3.6c0.3,1.2,0.5,2.3,0.8,3.5c0.3,1.1,0.5,2.1,0.7,2.9c0.2-0.8,0.5-1.6,0.7-2.6c0.3-1,0.6-2,0.8-3s0.5-2.1,0.8-3.1
		s0.5-2,0.7-2.9c0.2-0.9,0.4-1.7,0.6-2.4c0.2-0.7,0.3-1.2,0.4-1.5c0.1-0.4,0.3-0.7,0.6-1c0.3-0.3,0.7-0.4,1.1-0.5
		c0.4,0,0.9,0.1,1.2,0.4c0.3,0.3,0.5,0.6,0.6,1c0.3,1.1,0.5,2.3,0.8,3.7s0.6,2.7,0.9,4.1s0.7,2.8,1,4.1c0.3,1.3,0.7,2.5,1,3.5
		c0.2-0.8,0.5-1.8,0.7-2.9c0.3-1.1,0.5-2.3,0.8-3.5c0.3-1.2,0.5-2.4,0.8-3.5s0.5-2.2,0.7-3.2s0.4-1.7,0.5-2.3
		c0.1-0.6,0.2-0.9,0.2-0.9c0.1-0.3,0.3-0.7,0.5-0.9c0.3-0.2,0.6-0.3,1-0.3c0.4,0,0.8,0.1,1.1,0.3c0.3,0.2,0.4,0.6,0.4,0.9v0.1
		c0,0.1,0,0.2,0,0.2c0,0.2-0.1,0.7-0.3,1.6s-0.4,2-0.7,3.3c-0.3,1.3-0.6,2.7-0.9,4.2c-0.3,1.5-0.7,2.9-1,4.3s-0.6,2.5-1,3.6
		c-0.2,0.7-0.4,1.4-0.8,2.1c-0.2,0.4-0.6,0.7-1,0.9c-0.3,0.1-0.7,0.2-1,0.2c-0.1,0-0.3,0-0.4,0c-0.2,0-0.4-0.1-0.6-0.1
		c-0.2-0.1-0.4-0.2-0.6-0.3c-0.2-0.2-0.4-0.4-0.5-0.6c-0.3-0.7-0.5-1.4-0.7-2.1c-0.3-1-0.6-2.1-0.9-3.3c-0.3-1.2-0.6-2.6-1-3.9
		S20.8,89.1,20.5,87.9"/>
	<path class="st0" d="M38.2,95.9c-0.3,1.1-0.6,2.1-0.9,3c-0.2,0.9-0.5,1.7-0.7,2.3c-0.1,0.8-0.9,1.4-1.7,1.3
		c-0.8-0.1-1.4-0.9-1.3-1.7c0-0.1,0-0.3,0.1-0.4l0.4-1.4c0.2-0.8,0.6-1.8,0.9-2.9s0.8-2.4,1.3-3.8s0.9-2.8,1.4-4.1s1-2.6,1.5-3.8
		c0.4-1,0.8-1.9,1.4-2.9c0.1-0.3,0.4-0.6,0.7-0.8c0.4-0.2,0.8-0.2,1.2-0.2c0.4,0,0.9,0.1,1.3,0.2c0.3,0.2,0.6,0.5,0.7,0.8
		c0.3,0.7,0.7,1.6,1.1,2.7s0.9,2.4,1.4,3.7s1,2.7,1.4,4c0.4,1.3,0.9,2.6,1.3,3.8s0.7,2.2,1,3c0.3,0.8,0.5,1.4,0.5,1.6
		c0,0.1,0.1,0.3,0.1,0.4c0,0.4-0.1,0.7-0.4,1c-0.3,0.3-0.7,0.4-1.2,0.4c-0.3,0-0.6-0.1-0.9-0.2c-0.2-0.2-0.4-0.4-0.4-0.7
		c-0.2-0.6-0.5-1.3-0.8-2.3s-0.6-1.9-1-3L38.2,95.9 M45.7,93c-0.5-1.5-0.9-2.8-1.3-4c-0.4-1.2-0.8-2.3-1.3-3.5
		c-0.1-0.2-0.2-0.5-0.3-0.9c-0.1-0.3-0.2-0.5-0.2-0.6c-0.1,0.2-0.2,0.4-0.2,0.5c-0.1,0.4-0.2,0.7-0.4,0.9c-0.4,1.1-0.9,2.3-1.3,3.5
		s-0.9,2.6-1.3,4L45.7,93z"/>
	<path class="st0" d="M57.1,93.7c-0.1-0.1-0.2-0.2-0.3-0.4l-0.3-0.5c-0.3-0.4-0.6-1-1-1.6s-0.8-1.3-1.1-2s-0.7-1.4-1.1-2.2
		c-0.3-0.7-0.7-1.4-0.9-2c-0.3-0.6-0.5-1.2-0.7-1.6c-0.2-0.3-0.3-0.7-0.4-1c0-0.1-0.1-0.2-0.1-0.3c0,0,0-0.1,0-0.2
		c0-0.4,0.1-0.7,0.4-1c0.3-0.3,0.7-0.4,1.2-0.4c0.4,0,0.7,0.1,1,0.3c0.2,0.2,0.3,0.4,0.4,0.7l0.3,0.7c0.2,0.4,0.4,0.8,0.6,1.4
		c0.2,0.6,0.5,1.2,0.9,1.9s0.6,1.3,1,2l0.9,1.9c0.3,0.5,0.5,1,0.9,1.5c0.5-0.8,1-1.6,1.4-2.5c0.5-1,1-1.9,1.4-2.9s0.8-1.8,1.2-2.6
		l0.6-1.4c0.1-0.2,0.2-0.5,0.4-0.7c0.3-0.3,0.6-0.4,1-0.3c0.4,0,0.9,0.1,1.2,0.4c0.3,0.3,0.4,0.6,0.4,1c0,0.1,0,0.2,0,0.2l-0.1,0.3
		l-0.4,1c-0.2,0.5-0.4,1-0.7,1.6s-0.6,1.3-0.9,2s-0.7,1.4-1.1,2.2c-0.4,0.7-0.7,1.4-1.1,2s-0.7,1.2-1,1.7c-0.2,0.3-0.4,0.5-0.6,0.8
		v7c0,0.4-0.1,0.8-0.4,1.1c-0.6,0.6-1.6,0.6-2.1,0c-0.3-0.3-0.5-0.7-0.5-1.2v-7"/>
</g>
</svg>
