<svg width="99" height="20" viewBox="0 0 99 20" fill="none" xmlns="http://www.w3.org/2000/svg">
<g id="Nextjs-logo 1" clip-path="url(#clip0_17_396)">
<path id="Vector" d="M65.4839 0.00830078H82.6409V3.17503H75.8349V19.8348H72.4316V3.17503H65.4839V0.00830078Z" fill="#FF8247"/>
<path id="Vector_2" d="M37.2668 0.00830078V3.17503H23.5143V8.26933H34.574V11.4361H23.5143V16.6681H37.2668V19.8348H20.1113V3.17503H20.1099V0.00830078H37.2668Z" fill="#FF8247"/>
<path id="Vector_3" d="M45.8339 0.0164795H41.3804L57.3319 19.843H61.7984L53.8216 9.93654L61.7856 0.0316058L57.3319 0.0384883L51.5919 7.16737L45.8339 0.0164795Z" fill="#FF8247"/>
<path id="Vector_4" d="M50.4039 14.1787L48.1737 11.4058L41.3677 19.8582H45.8339L50.4039 14.1787Z" fill="#FF8247"/>
<path id="Vector_5" fill-rule="evenodd" clip-rule="evenodd" d="M20.2307 19.8347L4.25768 0H0.00390625V19.8265H3.40693V4.2379L15.9556 19.8347H20.2307Z" fill="#FF8247"/>
<path id="Vector_6" d="M83.4057 19.7136C83.1564 19.7136 82.9444 19.6273 82.7669 19.4546C82.5894 19.2819 82.5017 19.0729 82.5039 18.8252C82.5017 18.5844 82.5894 18.3776 82.7669 18.2049C82.9444 18.0323 83.1564 17.9459 83.4057 17.9459C83.6454 17.9459 83.8552 18.0323 84.0327 18.2049C84.2127 18.3776 84.3025 18.5844 84.305 18.8252C84.3025 18.9888 84.261 19.1388 84.178 19.2728C84.0927 19.4092 83.9845 19.516 83.8482 19.5932C83.7145 19.6727 83.5669 19.7136 83.4057 19.7136Z" fill="#FF8247"/>
<path id="Vector_7" d="M89.2138 11.3613H90.7218V17.1712C90.7195 17.7051 90.604 18.1618 90.3783 18.5458C90.15 18.9298 89.834 19.2229 89.4283 19.4296C89.0248 19.6341 88.552 19.7387 88.0148 19.7387C87.5235 19.7387 87.0833 19.65 86.6913 19.4774C86.2993 19.3047 85.988 19.0457 85.7598 18.7048C85.529 18.364 85.416 17.9391 85.416 17.4302H86.9265C86.9288 17.6529 86.9795 17.846 87.0763 18.0073C87.173 18.1686 87.3068 18.2913 87.4775 18.3776C87.6503 18.464 87.8488 18.5072 88.0723 18.5072C88.3145 18.5072 88.522 18.4572 88.6903 18.3549C88.8585 18.2549 88.9878 18.105 89.0778 17.905C89.1653 17.7074 89.2115 17.462 89.2138 17.1712V11.3613Z" fill="#FF8247"/>
<path id="Vector_8" d="M96.9266 13.6334C96.8899 13.2813 96.7284 13.0064 96.4471 12.811C96.1634 12.6133 95.7969 12.5156 95.3471 12.5156C95.0314 12.5156 94.7594 12.5633 94.5334 12.6565C94.3074 12.7519 94.1321 12.8791 94.0121 13.0404C93.8924 13.2018 93.8324 13.3858 93.8276 13.5926C93.8276 13.7652 93.8691 13.9152 93.9499 14.0402C94.0306 14.1674 94.1389 14.2742 94.2796 14.3605C94.4179 14.4491 94.5724 14.5218 94.7409 14.5809C94.9114 14.64 95.0821 14.69 95.2526 14.7309L96.0389 14.924C96.3549 14.9967 96.6616 15.0945 96.9544 15.2194C97.2471 15.3421 97.5124 15.4989 97.7451 15.6875C97.9781 15.8761 98.1626 16.1033 98.2986 16.3691C98.4346 16.6349 98.5039 16.9462 98.5039 17.3052C98.5039 17.7892 98.3794 18.214 98.1279 18.5821C97.8766 18.9479 97.5146 19.2342 97.0396 19.441C96.5669 19.6455 95.9951 19.75 95.3219 19.75C94.6716 19.75 94.1044 19.6501 93.6271 19.4501C93.1476 19.2524 92.7739 18.9616 92.5041 18.5798C92.2344 18.1981 92.0891 17.7323 92.0684 17.1848H93.5626C93.5834 17.471 93.6756 17.7097 93.8324 17.9028C93.9914 18.0936 94.1989 18.2345 94.4526 18.3299C94.7086 18.4231 94.9944 18.4708 95.3104 18.4708C95.6401 18.4708 95.9306 18.4208 96.1819 18.3231C96.4309 18.2254 96.6269 18.0891 96.7676 17.9119C96.9106 17.7369 96.9821 17.5301 96.9844 17.2938C96.9821 17.078 96.9174 16.8985 96.7929 16.7576C96.6661 16.6168 96.4909 16.4986 96.2671 16.4032C96.0414 16.3078 95.7784 16.2214 95.4786 16.1464L94.5241 15.9056C93.8346 15.7306 93.2881 15.4648 92.8891 15.1081C92.4881 14.7514 92.2896 14.2788 92.2896 13.6857C92.2896 13.1995 92.4234 12.7723 92.6934 12.4065C92.9606 12.0407 93.3274 11.7567 93.7909 11.5545C94.2566 11.35 94.7824 11.25 95.3679 11.25C95.9629 11.25 96.4839 11.35 96.9336 11.5545C97.3831 11.7567 97.7361 12.0384 97.9919 12.3974C98.2479 12.7564 98.3816 13.1677 98.3886 13.6334H96.9266Z" fill="#FF8247"/>
</g>
<defs>
<clipPath id="clip0_17_396">
<rect width="98.5" height="20" fill="white" transform="translate(0.00390625)"/>
</clipPath>
</defs>
</svg>
