<svg width="32" height="32" viewBox="0 0 32 32" fill="none" xmlns="http://www.w3.org/2000/svg">
<g id="shopify-logo-svgrepo-com 2" opacity="0.9">
<path id="Vector" d="M26.2179 6.02565C26.1023 6.016 23.6554 5.83463 23.6554 5.83463C23.6554 5.83463 21.956 4.14751 21.7695 3.96077C21.6996 3.89129 21.6055 3.85567 21.5071 3.84033L20.1343 31.9207L29.9712 29.7927C29.9712 29.7927 26.5176 6.44395 26.4959 6.28395C26.4739 6.12395 26.3337 6.0354 26.2179 6.02565Z" fill="#FF8247"/>
<path id="Subtract" fill-rule="evenodd" clip-rule="evenodd" d="M26.2175 6.02561C26.3334 6.03537 26.4735 6.12392 26.4956 6.28392C26.5173 6.44391 29.9709 29.7926 29.9709 29.7926L20.1331 31.9208L1.97656 28.519C1.97656 28.519 4.30664 10.4994 4.39464 9.86408C4.51158 9.02496 4.53974 8.9969 5.43026 8.71756C5.57503 8.67208 6.7084 8.32063 8.3038 7.82627C8.91881 5.21805 10.8803 0.0854492 14.9861 0.0854492C15.5224 0.0854492 16.1434 0.373449 16.6446 1.03635C16.6947 1.0335 16.7448 1.03153 16.7934 1.03153C18.556 1.03153 19.5578 2.53268 20.1255 4.16622C20.7052 3.98682 21.0557 3.87865 21.0765 3.87252C21.218 3.83087 21.5825 3.77411 21.7691 3.96074C21.9556 4.14748 23.655 5.8346 23.655 5.8346C23.655 5.8346 26.1019 6.01597 26.2175 6.02561ZM17.5857 4.95208L19.122 4.47657C18.7327 3.28742 18.1279 2.25411 17.2197 2.14013C17.4458 2.78813 17.5868 3.60556 17.5868 4.62079C17.5868 4.73558 17.5862 4.84069 17.5857 4.94733L17.5857 4.95208ZM16.5098 5.10726C16.5098 3.88205 16.3457 2.97411 16.0932 2.34145C15.092 2.77104 13.9468 3.90989 13.3358 6.26781C13.9348 6.08224 14.533 5.89702 15.1165 5.71636C15.593 5.56883 16.0596 5.42435 16.5087 5.28523L16.5087 5.28344C16.5093 5.22608 16.5098 5.1693 16.5098 5.10726ZM15.3999 1.36446C15.2291 1.24687 15.0505 1.18671 14.8733 1.18671C11.9243 1.18671 10.2676 5.05871 9.56999 7.43405L12.078 6.65729C12.6737 3.54309 14.0841 1.98364 15.3999 1.36446ZM15.5808 15.0698L16.7938 11.4615C16.7938 11.4615 15.9739 10.9861 14.3142 10.9861C10.0067 10.9861 7.87275 13.8631 7.87275 16.8362C7.87275 18.8205 8.98497 19.7204 9.9598 20.5091C10.7203 21.1244 11.3971 21.6721 11.3971 22.6141C11.3971 23.1338 11.0297 23.845 10.1263 23.845C8.74387 23.845 7.10552 22.4385 7.10552 22.4385L6.271 25.1957C6.271 25.1957 7.86486 27.1355 10.9816 27.1355C13.5788 27.1355 15.5051 25.1798 15.5051 22.1428C15.5051 19.8081 13.9336 18.6545 12.6916 17.7427C11.8801 17.147 11.2092 16.6544 11.2092 16.0032C11.2092 15.7012 11.3053 14.5026 13.2152 14.5026C14.518 14.5026 15.5808 15.0698 15.5808 15.0698Z" fill="#FF8247"/>
</g>
</svg>
