<svg width="32" height="32" viewBox="0 0 32 32" fill="none" xmlns="http://www.w3.org/2000/svg">
<g id="stripe-svgrepo-com 1" opacity="0.9">
<g id="Group">
<path id="Vector" d="M2.24889 14.5303C2.24889 14.1836 2.53333 14.0503 3.00444 14.0503C3.68 14.0503 4.53333 14.2547 5.20889 14.6192V12.5303C4.47111 12.2369 3.74222 12.1214 3.00444 12.1214C1.2 12.1214 0 13.0636 0 14.6369C0 17.0903 3.37778 16.6992 3.37778 17.7569C3.37778 18.1658 3.02222 18.2992 2.52444 18.2992C1.78667 18.2992 0.844444 17.9969 0.0977778 17.5881V19.7036C0.924444 20.0592 1.76 20.2103 2.52444 20.2103C4.37333 20.2103 5.64444 19.2947 5.64444 17.7036C5.63556 15.0547 2.24889 15.5258 2.24889 14.5303ZM8.25778 10.3436L6.08889 10.8058L6.08 17.9258C6.08 19.2414 7.06667 20.2103 8.38222 20.2103C9.11111 20.2103 9.64444 20.0769 9.93778 19.9169V18.1125C9.65333 18.2281 8.24889 18.6369 8.24889 17.3214V14.1658H9.93778V12.2725H8.24889L8.25778 10.3436ZM12.7022 12.9303L12.56 12.2725H10.64V20.0503H12.8622V14.7792C13.3867 14.0947 14.2756 14.2192 14.5511 14.3169V12.2725C14.2667 12.1658 13.2267 11.9703 12.7022 12.9303ZM15.0933 12.2725H17.3244V20.0503H15.0933V12.2725ZM15.0933 11.5969L17.3244 11.1169V9.3125L15.0933 9.78361V11.5969ZM21.9644 12.1214C21.0933 12.1214 20.5333 12.5303 20.2222 12.8147L20.1067 12.2636H18.1511V22.6281L20.3733 22.1569L20.3822 19.6414C20.7022 19.8725 21.1733 20.2014 21.9556 20.2014C23.5467 20.2014 24.9956 18.9214 24.9956 16.1036C24.9867 13.5258 23.52 12.1214 21.9644 12.1214ZM21.4311 18.2458C20.9067 18.2458 20.5956 18.0592 20.3822 17.8281L20.3733 14.5303C20.6044 14.2725 20.9244 14.0947 21.4311 14.0947C22.24 14.0947 22.8 15.0014 22.8 16.1658C22.8 17.3569 22.2489 18.2458 21.4311 18.2458ZM32 16.1925C32 13.9169 30.8978 12.1214 28.7911 12.1214C26.6756 12.1214 25.3956 13.9169 25.3956 16.1747C25.3956 18.8503 26.9067 20.2014 29.0756 20.2014C30.1333 20.2014 30.9333 19.9614 31.5378 19.6236V17.8458C30.9333 18.1481 30.24 18.3347 29.36 18.3347C28.4978 18.3347 27.7333 18.0325 27.6356 16.9836H31.9822C31.9822 16.8681 32 16.4058 32 16.1925ZM27.6089 15.3481C27.6089 14.3436 28.2222 13.9258 28.7822 13.9258C29.3244 13.9258 29.9022 14.3436 29.9022 15.3481H27.6089Z" fill="#FF8247"/>
</g>
</g>
</svg>
