<svg width="32" height="32" viewBox="0 0 32 32" fill="none" xmlns="http://www.w3.org/2000/svg">
<g id="woocommerce-icon-svgrepo-com 1" opacity="0.9">
<g id="Group">
<path id="Vector" fill-rule="evenodd" clip-rule="evenodd" d="M29.0172 6.4375H2.96992C1.32152 6.4375 -0.0128931 7.785 9.39999e-05 9.42031V19.363C9.39999e-05 21.0114 1.33461 22.3458 2.98301 22.3458H15.3198L20.9584 25.4856L19.6763 22.3458H29.0172C30.6656 22.3458 32 21.0114 32 19.363V9.42031C32 7.77191 30.6656 6.4375 29.0172 6.4375ZM2.42051 8.74002C2.0542 8.76619 1.77946 8.89701 1.59631 9.14557C1.41316 9.38106 1.34775 9.68196 1.38699 10.0221C2.15886 14.9281 2.8784 18.2379 3.54561 19.9517C3.80726 20.5797 4.10816 20.8806 4.46139 20.8545C5.01085 20.8152 5.66497 20.0564 6.43684 18.5781C6.8424 17.7408 7.47037 16.4849 8.32073 14.8103C9.02715 17.2829 9.99525 19.1407 11.212 20.3835C11.5521 20.7367 11.9054 20.8937 12.2454 20.8675C12.5464 20.8413 12.7818 20.6843 12.9388 20.3965C13.0697 20.148 13.122 19.8601 13.0958 19.5331C13.0173 18.3426 13.1351 16.6811 13.4622 14.5487C13.8023 12.3508 14.2209 10.7678 14.7312 9.82587C14.8358 9.62963 14.875 9.43339 14.862 9.19791C14.8358 8.897 14.705 8.64844 14.4564 8.45221C14.2079 8.25597 13.9331 8.16439 13.6322 8.19055C13.2528 8.21672 12.965 8.39987 12.7688 8.76619C11.9577 10.2445 11.382 12.6386 11.0419 15.9616C10.5448 14.7057 10.1261 13.2273 9.79904 11.4873C9.65516 10.7155 9.30195 10.3492 8.72627 10.3884C8.33381 10.4146 8.00675 10.6762 7.7451 11.1734L4.88003 16.6288C4.40905 14.7318 3.96425 12.4162 3.55869 9.68196C3.46711 9.00167 3.08772 8.68768 2.42051 8.74002ZM27.6305 9.682C28.5594 9.87824 29.2528 10.3754 29.7237 11.1996C30.1424 11.906 30.3516 12.7564 30.3516 13.7768C30.3516 15.1243 30.0116 16.3541 29.3312 17.4792C28.5463 18.7874 27.5258 19.4415 26.2569 19.4415C26.0345 19.4415 25.799 19.4154 25.5504 19.363C24.6216 19.1668 23.9282 18.6697 23.4572 17.8455C23.0386 17.126 22.8292 16.2625 22.8292 15.2551C22.8292 13.9077 23.1694 12.6779 23.8497 11.5659C24.6477 10.2576 25.6682 9.60351 26.9241 9.60351C27.1465 9.60351 27.382 9.62967 27.6305 9.682ZM27.0811 16.7596C27.5651 16.3279 27.8922 15.6868 28.0754 14.8234C28.1277 14.5225 28.1669 14.1955 28.1669 13.8553C28.1669 13.4759 28.0884 13.0704 27.9314 12.6648C27.7352 12.1546 27.4735 11.8799 27.1595 11.8144C26.6886 11.7229 26.2307 11.9845 25.799 12.6256C25.4458 13.1227 25.2233 13.646 25.1056 14.1824C25.0401 14.4833 25.014 14.8104 25.014 15.1374C25.014 15.5168 25.0925 15.9224 25.2495 16.3279C25.4458 16.8381 25.7074 17.1128 26.0214 17.1783C26.3484 17.2437 26.7016 17.0998 27.0811 16.7596ZM21.521 11.1996C21.05 10.3754 20.3435 9.87824 19.4278 9.682C19.1791 9.62967 18.9437 9.60351 18.7213 9.60351C17.4654 9.60351 16.445 10.2576 15.6469 11.5659C14.9666 12.6779 14.6265 13.9077 14.6265 15.2551C14.6265 16.2625 14.8358 17.126 15.2544 17.8455C15.7254 18.6697 16.4188 19.1668 17.3476 19.363C17.5962 19.4154 17.8317 19.4415 18.0541 19.4415C19.3231 19.4415 20.3435 18.7874 21.1285 17.4792C21.8088 16.3541 22.1489 15.1243 22.1489 13.7768C22.1489 12.7564 21.9396 11.906 21.521 11.1996ZM19.8725 14.8234C19.6894 15.6868 19.3623 16.3279 18.8783 16.7596C18.4989 17.0998 18.1457 17.2437 17.8186 17.1783C17.5046 17.1128 17.2429 16.8381 17.0467 16.3279C16.8897 15.9224 16.8112 15.5168 16.8112 15.1374C16.8112 14.8104 16.8374 14.4833 16.9029 14.1824C17.0206 13.646 17.2429 13.1227 17.5962 12.6256C18.028 11.9845 18.4858 11.7229 18.9568 11.8144C19.2708 11.8799 19.5324 12.1546 19.7286 12.6648C19.8856 13.0704 19.9641 13.4759 19.9641 13.8553C19.9641 14.1955 19.938 14.5225 19.8725 14.8234Z" fill="#FF8247"/>
</g>
</g>
</svg>
