<svg width="143" height="32" viewBox="0 0 143 32" fill="none" xmlns="http://www.w3.org/2000/svg">
<g id="Layer_2">
<g id="Group">
<path id="Vector" d="M82.7439 12.5957H77.1279V13.1847C78.8845 13.1847 79.1669 13.5568 79.1669 15.7591V19.7292C79.1669 21.9312 78.8848 22.3344 77.1279 22.3344C75.7791 22.1485 74.869 21.4349 73.614 20.0703L72.171 18.5197C74.116 18.1781 75.1511 16.9688 75.1511 15.6039C75.1511 13.8984 73.6769 12.5957 70.9158 12.5957H65.394V13.1847C67.1507 13.1847 67.4331 13.5568 67.4331 15.7591V19.7292C67.4331 21.9312 67.1507 22.3344 65.394 22.3344V22.9236H71.6373V22.3344C69.8806 22.3344 69.5982 21.9312 69.5982 19.7292V18.6129H70.1314L73.614 22.9236H82.7439C87.2302 22.9236 89.1755 20.5668 89.1755 17.744C89.1755 14.9217 87.2305 12.5957 82.7439 12.5957ZM69.5985 17.6508V13.5263H70.8846C72.2962 13.5263 72.9239 14.4877 72.9239 15.6042C72.9239 16.6899 72.2962 17.651 70.8846 17.651L69.5985 17.6508ZM82.8382 21.9622H82.6184C81.4892 21.9622 81.3323 21.6833 81.3323 20.2565V13.5263C81.3323 13.5263 82.7127 13.5263 82.8382 13.5263C86.1011 13.5263 86.6968 15.8831 86.6968 17.7132C86.6968 19.6049 86.1008 21.9622 82.8382 21.9622Z" fill="#FF8247"/>
<path id="Vector_2" d="M47.9195 18.7989L50.0843 12.4714C50.712 10.6416 50.4296 10.1146 48.4217 10.1146V9.49402H54.3199V10.1146C52.3435 10.1146 51.8729 10.5797 51.0885 12.8439L47.5115 23.451H47.1039L43.9034 13.7431L40.6408 23.451H40.2329L36.7505 12.8439C35.9975 10.5797 35.4956 10.1146 33.6758 10.1146V9.49402H40.6408V10.1146C38.7896 10.1146 38.2873 10.5486 38.9465 12.4714L41.0485 18.7989L44.2173 9.49402H44.8136L47.9195 18.7989Z" fill="#FF8247"/>
<path id="Vector_3" d="M58.5867 23.3266C55.1358 23.3266 52.312 20.8146 52.312 17.7437C52.312 14.7044 55.136 12.1919 58.5867 12.1919C62.0379 12.1919 64.8614 14.7044 64.8614 17.7437C64.8614 20.8146 62.0379 23.3266 58.5867 23.3266ZM58.5867 13.1541C55.7006 13.1541 54.6964 15.7279 54.6964 17.744C54.6964 19.7913 55.7006 22.3344 58.5867 22.3344C61.5048 22.3344 62.5087 19.7913 62.5087 17.744C62.5087 15.7279 61.5048 13.1541 58.5867 13.1541Z" fill="#FF8247"/>
<path id="Vector_4" d="M96.9248 22.3033V22.9236H89.7402V22.3033C91.8425 22.3033 92.2189 21.7762 92.2189 18.6742V13.7122C92.2189 10.6102 91.8425 10.1142 89.7402 10.1142V9.49365H96.2345C99.4659 9.49365 101.255 11.1375 101.255 13.34C101.255 15.4801 99.4659 17.1547 96.2345 17.1547H94.4461V18.674C94.4461 21.7762 94.8226 22.3033 96.9248 22.3033ZM96.2345 10.6102H94.4461V16.0071H96.2345C97.9916 16.0071 98.8072 14.7976 98.8072 13.34C98.8072 11.8513 97.9916 10.6102 96.2345 10.6102Z" fill="#FF8247"/>
<path id="Vector_5" d="M122.808 20.0084L122.651 20.5665C122.369 21.5901 122.023 21.9622 119.796 21.9622H119.356C117.725 21.9622 117.443 21.5901 117.443 19.3881V17.9616C119.89 17.9616 120.078 18.1783 120.078 19.7913H120.674V15.1698H120.078C120.078 16.7826 119.89 16.9996 117.443 16.9996V13.5263H119.168C121.396 13.5263 121.741 13.8984 122.023 14.922L122.18 15.5109H122.682L122.463 12.5957H113.239V13.1847C114.995 13.1847 115.278 13.5568 115.278 15.7591V19.7292C115.278 21.7436 115.038 22.2511 113.653 22.3234C112.336 22.1247 111.432 21.4148 110.196 20.0703L108.752 18.5197C110.698 18.1781 111.733 16.9688 111.733 15.6039C111.733 13.8984 110.259 12.5957 107.498 12.5957H101.976V13.1847C103.733 13.1847 104.015 13.5568 104.015 15.7591V19.7292C104.015 21.9312 103.733 22.3344 101.976 22.3344V22.9236H108.22V22.3344C106.463 22.3344 106.18 21.9312 106.18 19.7292V18.6129H106.714L110.196 22.9236H123.09L123.279 20.0086L122.808 20.0084ZM106.18 17.6508V13.5263H107.466C108.878 13.5263 109.506 14.4877 109.506 15.6042C109.506 16.6899 108.878 17.651 107.466 17.651L106.18 17.6508Z" fill="#FF8247"/>
<path id="Vector_6" d="M129.176 23.3267C127.921 23.3267 126.823 22.6756 126.352 22.2721C126.195 22.4275 125.913 22.8926 125.851 23.3267H125.254V19.0471H125.882C126.133 21.0939 127.576 22.3034 129.427 22.3034C130.431 22.3034 131.247 21.7453 131.247 20.815C131.247 20.0087 130.525 19.3882 129.239 18.799L127.451 17.9616C126.195 17.3719 125.254 16.3483 125.254 14.984C125.254 13.4953 126.666 12.2239 128.612 12.2239C129.647 12.2239 130.525 12.596 131.059 13.0301C131.215 12.9061 131.372 12.5647 131.467 12.1923H132.063V15.8524H131.404C131.184 14.3945 130.368 13.185 128.706 13.185C127.827 13.185 127.011 13.6812 127.011 14.4569C127.011 15.2632 127.67 15.6972 129.176 16.3797L130.902 17.217C132.408 17.9303 133.004 19.0784 133.004 20.0087C133.004 21.9623 131.278 23.3267 129.176 23.3267Z" fill="#FF8247"/>
<path id="Vector_7" d="M138.839 23.3267C137.584 23.3267 136.486 22.6756 136.016 22.2721C135.859 22.4275 135.577 22.8926 135.514 23.3267H134.918V19.0471H135.545C135.796 21.0939 137.239 22.3034 139.09 22.3034C140.094 22.3034 140.91 21.7453 140.91 20.815C140.91 20.0087 140.189 19.3882 138.902 18.799L137.114 17.9616C135.859 17.3719 134.917 16.3483 134.917 14.984C134.917 13.4953 136.329 12.2239 138.275 12.2239C139.31 12.2239 140.188 12.596 140.722 13.0301C140.879 12.9061 141.036 12.5647 141.129 12.1923H141.726V15.8524H141.067C140.847 14.3945 140.032 13.185 138.369 13.185C137.49 13.185 136.674 13.6812 136.674 14.4569C136.674 15.2632 137.333 15.6972 138.839 16.3797L140.565 17.217C142.071 17.9303 142.667 19.0784 142.667 20.0087C142.667 21.9623 140.941 23.3267 138.839 23.3267Z" fill="#FF8247"/>
<g id="Group_2">
<path id="Vector_8" d="M2.30078 15.9996C2.30078 21.4326 5.49466 26.1277 10.126 28.3527L3.50288 10.4136C2.73248 12.1206 2.30078 14.0097 2.30078 15.9996Z" fill="#FF8247"/>
<path id="Vector_9" d="M25.5586 15.3069C25.5586 13.6106 24.9422 12.4358 24.4136 11.5215C23.7097 10.3908 23.05 9.43337 23.05 8.30274C23.05 7.041 24.0181 5.8665 25.3816 5.8665C25.4431 5.8665 25.5015 5.87407 25.5615 5.87747C23.0912 3.64024 19.8001 2.27429 16.1854 2.27429C11.3347 2.27429 7.06714 4.73456 4.58447 8.46102C4.91023 8.47068 5.21723 8.47747 5.47799 8.47747C6.93028 8.47747 9.17834 8.30327 9.17834 8.30327C9.92681 8.25965 10.0151 9.3464 9.26737 9.43389C9.26737 9.43389 8.5152 9.52139 7.67823 9.56474L12.7344 24.4322L15.773 15.4234L13.6097 9.56422C12.862 9.52086 12.1537 9.43337 12.1537 9.43337C11.4055 9.39002 11.4932 8.25913 12.2414 8.30274C12.2414 8.30274 14.5344 8.47695 15.8987 8.47695C17.3508 8.47695 19.5991 8.30274 19.5991 8.30274C20.3481 8.25913 20.4361 9.34588 19.6881 9.43337C19.6881 9.43337 18.9344 9.52086 18.099 9.56422L23.1166 24.3191L24.5015 19.7441C25.1018 17.8456 25.5586 16.482 25.5586 15.3069Z" fill="#FF8247"/>
<path id="Vector_10" d="M16.429 17.2002L12.2632 29.167C13.507 29.5285 14.8225 29.7262 16.1855 29.7262C17.8023 29.7262 19.3529 29.4498 20.7962 28.9481C20.759 28.8894 20.7252 28.8269 20.6974 28.759L16.429 17.2002Z" fill="#FF8247"/>
<path id="Vector_11" d="M28.3689 9.41443C28.4286 9.85164 28.4624 10.321 28.4624 10.8258C28.4624 12.2187 28.1993 13.7844 27.4067 15.7422L23.1655 27.8641C27.2933 25.4846 30.0698 21.0636 30.0698 16C30.0701 13.6136 29.4534 11.3696 28.3689 9.41443Z" fill="#FF8247"/>
<path id="Vector_12" d="M16.1853 0C7.26094 0 0 7.17736 0 15.9996C0 24.8229 7.26094 32 16.1853 32C25.1093 32 32.3713 24.8229 32.3713 15.9996C32.3711 7.17736 25.1093 0 16.1853 0ZM16.1853 31.2666C7.67018 31.2666 0.742131 24.4178 0.742131 15.9996C0.742131 7.58192 7.66992 0.733642 16.1853 0.733642C24.7001 0.733642 31.6276 7.58192 31.6276 15.9996C31.6276 24.4178 24.7001 31.2666 16.1853 31.2666Z" fill="#FF8247"/>
</g>
</g>
</g>
</svg>
