<svg width="122" height="50" viewBox="0 0 122 50" fill="none" xmlns="http://www.w3.org/2000/svg">
<g id="Frame 34">
<path id="Vector" d="M10.8844 50H1.0461C0.0437161 50 -0.295326 48.9856 0.27957 47.7499L21.2706 2.25009C21.8455 0.995943 23.1133 0 24.1156 0H33.9539C34.9563 0 35.2953 1.01439 34.7204 2.25009L13.7294 47.7499C13.1545 49.0041 11.8867 50 10.8844 50Z" fill="#F15A14"/>
<path id="Vector_2" opacity="0.8" d="M27.8844 50H18.0461C17.0437 50 16.7047 48.9856 17.2796 47.7499L38.2706 2.25009C38.8455 0.995943 40.1133 0 41.1156 0H50.9539C51.9563 0 52.2953 1.01439 51.7204 2.25009L30.7294 47.7499C30.1545 49.0041 28.8867 50 27.8844 50Z" fill="#F15A14"/>
<path id="Vector_3" opacity="0.6" d="M45.1953 50H35.076C34.045 50 33.6962 48.9856 34.2876 47.7499L55.8784 2.25009C56.4697 0.995943 57.7736 0 58.8047 0H68.924C69.955 0 70.3038 1.01439 69.7124 2.25009L48.1216 47.7499C47.5303 49.0041 46.2264 50 45.1953 50Z" fill="#F15A14"/>
<path id="Vector_4" opacity="0.4" d="M62.1953 50H52.076C51.045 50 50.6962 48.9856 51.2876 47.7499L72.8784 2.25009C73.4697 0.995943 74.7736 0 75.8047 0H85.924C86.955 0 87.3038 1.01439 86.7124 2.25009L65.1216 47.7499C64.5303 49.0041 63.2264 50 62.1953 50Z" fill="#F15A14"/>
<path id="Vector_5" opacity="0.2" d="M79.8844 50H70.0461C69.0437 50 68.7047 48.9856 69.2796 47.7499L90.2706 2.25009C90.8455 0.995943 92.1133 0 93.1156 0H102.954C103.956 0 104.295 1.01439 103.72 2.25009L82.7294 47.7499C82.1545 49.0041 80.8867 50 79.8844 50Z" fill="#F15A14"/>
<path id="Vector_6" opacity="0.1" d="M97.8844 50H88.0461C87.0437 50 86.7047 48.9856 87.2796 47.7499L108.271 2.25009C108.846 0.995943 110.113 0 111.116 0H120.954C121.956 0 122.295 1.01439 121.72 2.25009L100.729 47.7499C100.154 49.0041 98.8867 50 97.8844 50Z" fill="#F15A14"/>
</g>
</svg>
